2.2Hzhigh3min_grf.mot
version=1
nRows=15
nColumns 19
inDegrees=yes
endheader
time	1_ground_force_vx	1_ground_force_vy	1_ground_force_vz	1_ground_force_px	1_ground_force_py	1_ground_force_pz	1_ground_torque_x	1_ground_torque_y	1_ground_torque_z	2_ground_force_vx	2_ground_force_vy	2_ground_force_vz	2_ground_force_px	2_ground_force_py	2_ground_force_pz	2_ground_torque_x	2_ground_torque_y	2_ground_torque_z
            1.253500	            2.106757	            9.194547	           -0.103380	           -0.233013	            0.005581	           -0.255695	            1.671860	            0.332278	            0.500423	           -6.752428	           40.670585	            0.805013	           -0.211238	            0.005416	           -0.612209	           -0.138373	            0.833434	            0.016497
            1.254000	            1.740520	            8.292558	            0.031233	           -0.233013	            0.005581	           -0.255695	            1.441331	            0.507533	            0.523737	           -6.229145	           38.463001	            0.703053	           -0.208465	            0.005409	           -0.607489	           -0.107324	            0.662695	            0.012113
            1.254500	            1.650185	            7.749580	            0.533556	           -0.233013	            0.005581	           -0.255695	            1.288772	            0.165554	            0.499961	           -5.332454	           36.625568	            0.461463	           -0.210172	            0.005393	           -0.604781	           -0.047718	            0.327745	            0.004129
            1.255000	            1.283833	            6.847788	            0.622314	           -0.233013	            0.005581	           -0.255695	            1.191220	           -0.370022	            0.313118	           -4.437797	           35.340916	            0.127989	           -0.211951	            0.005384	           -0.604002	           -0.013912	            0.110787	            0.000401
            1.255500	            1.054474	            5.766739	            0.480677	           -0.233013	            0.005581	           -0.255695	            0.972803	           -0.795774	            0.396091	           -3.919372	           34.424043	           -0.438653	           -0.213595	            0.005388	           -0.606771	           -0.001057	            0.009286	           -0.000118
            1.256000	            1.604137	            4.506165	            0.198766	           -0.233013	            0.005581	           -0.255695	            0.834738	           -0.674588	            0.232474	           -3.956561	           31.664160	           -1.152411	           -0.209984	            0.005392	           -0.604184	           -0.020415	            0.163378	           -0.005946
            1.256500	            1.787137	            3.425590	           -0.035607	           -0.233013	            0.005581	           -0.255695	            0.601041	           -0.101385	            0.224571	           -4.321473	           28.901251	           -1.349820	           -0.212524	            0.005368	           -0.600065	           -0.066655	            0.445778	           -0.020820
            1.257000	            1.832576	            2.525253	           -0.268865	           -0.233013	            0.005581	           -0.255695	            0.517405	            0.388592	            0.210068	           -4.829765	           27.054560	           -0.417609	           -0.210217	            0.005376	           -0.600053	           -0.102451	            0.573894	           -0.008859
            1.257500	            1.603882	            2.163891	           -0.086418	           -0.233013	            0.005581	           -0.255695	            0.378275	            0.490305	            0.163492	           -4.822002	           25.025246	            0.607582	           -0.202522	            0.005392	           -0.596770	           -0.098669	            0.512075	            0.012433
            1.258000	            1.283765	            0.360386	            0.090072	           -0.233013	            0.005581	           -0.255695	            0.408920	            0.065457	            0.035187	           -4.486371	           22.997786	            1.444920	           -0.206237	            0.005369	           -0.593897	           -0.080049	            0.410342	            0.025781
            1.258500	            1.193286	           -1.263596	            0.450190	           -0.233013	            0.005581	           -0.255695	            0.300646	           -0.489359	            0.066821	           -3.967138	           21.895593	            1.206118	           -0.210393	            0.005357	           -0.594700	           -0.042621	            0.235237	            0.012958
            1.259000	            1.193514	           -1.263989	            0.541902	           -0.233013	            0.005581	           -0.255695	            0.202607	           -0.812329	           -0.065907	           -3.025152	           20.428468	            0.449614	           -0.208319	            0.005363	           -0.594523	           -0.014861	            0.100356	            0.002209
            1.259500	            1.422618	           -2.525214	            0.398355	           -0.233013	            0.005581	           -0.255695	            0.040639	           -0.554009	            0.077008	           -2.592636	           17.302984	           -0.547226	           -0.205537	            0.005282	           -0.568880	           -0.038438	            0.256531	           -0.008113
            1.260000	            1.651200	           -3.425122	            0.072930	           -0.233013	            0.005581	           -0.255695	           -0.152326	            0.047997	           -0.173299	           -2.355372	           16.385598	           -1.254532	           -0.203160	            0.005267	           -0.562235	           -0.041959	            0.291894	           -0.022348
            1.260500	            1.925054	           -3.062572	           -0.384766	           -0.233013	            0.005581	           -0.255695	           -0.020335	            0.510142	           -0.122334	           -2.442302	           14.542773	           -0.979494	           -0.196705	            0.005246	           -0.549874	           -0.061672	            0.367229	           -0.024734
